# xmcd
#
# Track frame offsets:
#	150
#	18323
#	36526
#	55201
#	72978
#	88172
#	104530
#	124396
#	138235
#	157364
#	178465
#	195390
#	214687
#	236781
#	269998
#
# Disc length: 4440 seconds
#
# Revision: 0
# Processed by: cddbd v1.5.2PL0 Copyright (c) Steve Scherf et al.
# Submitted via: EasyCDDAExtractor 10.0.3.1
#
DISCID=f511560f
DTITLE=RENATA DĄBKOWSKA - BO TAKA JEST...
DYEAR=1900
DGENRE=
TTITLE0=Na Grosze
TTITLE1=Bo Taka Jest...
TTITLE2=Nas
TTITLE3=Skąd Mam Wiedzieć?
TTITLE4=Środa Rano
TTITLE5=Gdzie Nie My
TTITLE6=By Stać Się Sobą
TTITLE7=Domy Z Marzeń
TTITLE8=To Twój Sen
TTITLE9=Drogowa
TTITLE10=To Nie Żal Tylko Lęk
TTITLE11=Tatatara
TTITLE12=Bo Taka Jest.... - RENIEKS
TTITLE13=Grosze - RENIKS
TTITLE14=DATA
EXTD=
EXTT0=
EXTT1=
EXTT2=
EXTT3=
EXTT4=
EXTT5=
EXTT6=
EXTT7=
EXTT8=
EXTT9=
EXTT10=
EXTT11=
EXTT12=
EXTT13=
EXTT14=
PLAYORDER=
